<svg width="14" height="14" viewBox="0 0 14 14" fill="none" xmlns="http://www.w3.org/2000/svg">
<path d="M12 7.49841V5.49841C12 5.2332 11.8946 4.97884 11.7071 4.79131C11.5196 4.60377 11.2652 4.49841 11 4.49841H1.5C1.23478 4.49841 0.98043 4.60377 0.792893 4.79131C0.605357 4.97884 0.5 5.2332 0.5 5.49841V12.4984C0.5 12.7636 0.605357 13.018 0.792893 13.2055C0.98043 13.3931 1.23478 13.4984 1.5 13.4984H11C11.2652 13.4984 11.5196 13.3931 11.7071 13.2055C11.8946 13.018 12 12.7636 12 12.4984V9.99841" stroke="#0F7C82" stroke-linecap="round" stroke-linejoin="round"/>
<path d="M3.83984 1.99836L9.50984 0.518363C9.57356 0.500411 9.64025 0.495555 9.70589 0.504088C9.77153 0.51262 9.83477 0.534365 9.89177 0.568008C9.94878 0.601652 9.99838 0.646498 10.0376 0.699839C10.0768 0.753179 10.1048 0.813909 10.1198 0.878363L10.3998 1.99836" stroke="#0F7C82" stroke-linecap="round" stroke-linejoin="round"/>
<path d="M13 7.49841H10.5C10.2239 7.49841 10 7.72227 10 7.99841V9.49841C10 9.77456 10.2239 9.99841 10.5 9.99841H13C13.2761 9.99841 13.5 9.77456 13.5 9.49841V7.99841C13.5 7.72227 13.2761 7.49841 13 7.49841Z" stroke="#0F7C82" stroke-linecap="round" stroke-linejoin="round"/>
</svg>
