<svg width="15" height="15" viewBox="0 0 15 15" fill="none" xmlns="http://www.w3.org/2000/svg">
<path d="M6.96533 13.3507C6.96526 13.0352 6.70959 12.7794 6.39404 12.7794C6.07856 12.7795 5.82283 13.0352 5.82275 13.3507C5.82275 13.6663 6.07852 13.9219 6.39404 13.922C6.70963 13.922 6.96533 13.6663 6.96533 13.3507ZM7.96533 13.3507C7.96533 14.2186 7.26192 14.922 6.39404 14.922C5.52623 14.9219 4.82275 14.2185 4.82275 13.3507C4.82283 12.4829 5.52628 11.7795 6.39404 11.7794C7.26187 11.7794 7.96526 12.4829 7.96533 13.3507Z" fill="#0F7C82"/>
<path d="M11.7866 13.3507C11.7865 13.0352 11.5309 12.7794 11.2153 12.7794C10.8999 12.7795 10.6441 13.0352 10.644 13.3507C10.644 13.6663 10.8998 13.9219 11.2153 13.922C11.5309 13.922 11.7866 13.6663 11.7866 13.3507ZM12.7866 13.3507C12.7866 14.2186 12.0832 14.922 11.2153 14.922C10.3475 14.9219 9.64404 14.2185 9.64404 13.3507C9.64412 12.4829 10.3476 11.7795 11.2153 11.7794C12.0832 11.7794 12.7865 12.4829 12.7866 13.3507Z" fill="#0F7C82"/>
<path d="M4.32783 0.0218398C5.08425 -0.0508123 5.84726 0.0585056 6.55341 0.339223C7.25962 0.62 7.88926 1.06482 8.38935 1.63707C8.88938 2.20934 9.24581 2.8928 9.42939 3.63024C9.49593 3.89806 9.3329 4.16893 9.06513 4.23571C8.79717 4.30241 8.5254 4.13941 8.45869 3.87145C8.31348 3.28825 8.03184 2.74788 7.63642 2.29528C7.24085 1.84262 6.74288 1.49004 6.18427 1.26793C5.62568 1.04588 5.02189 0.960468 4.42353 1.01793C3.82505 1.07547 3.24805 1.2745 2.74189 1.59899C2.23585 1.92345 1.81448 2.36443 1.5124 2.88414C1.21039 3.40387 1.036 3.98796 1.00459 4.58825C0.973173 5.18862 1.08555 5.78782 1.33173 6.33629C1.57795 6.88477 1.95111 7.36701 2.4206 7.74254C2.63625 7.91503 2.67121 8.23002 2.49873 8.44567C2.32629 8.66083 2.01209 8.69578 1.79658 8.52379C1.20302 8.04905 0.73089 7.43887 0.419625 6.74547C0.10846 6.05216 -0.033177 5.29442 0.00653887 4.53551C0.0463261 3.77665 0.266276 3.0382 0.64814 2.38121C1.03008 1.72413 1.56299 1.16737 2.20283 0.757191C2.84266 0.347045 3.57131 0.0945734 4.32783 0.0218398Z" fill="#0F7C82"/>
<path d="M6.04091 2.8401C6.23618 2.64498 6.55272 2.64489 6.74794 2.8401C6.94302 3.03533 6.94302 3.35191 6.74794 3.54713L5.14052 5.15456C4.94529 5.34963 4.62871 5.34963 4.43349 5.15456C4.23827 4.95934 4.23836 4.6428 4.43349 4.44752L6.04091 2.8401Z" fill="#0F7C82"/>
<path d="M6.42969 10.1471V9.57581H5.32227C4.88665 9.57588 4.46916 9.74922 4.16113 10.0573C3.8531 10.3653 3.67976 10.7828 3.67969 11.2184V13.3619C3.67946 13.6379 3.45569 13.8619 3.17969 13.8619C2.90368 13.8619 2.67991 13.6379 2.67969 13.3619V11.2184C2.67976 10.5176 2.95854 9.84579 3.4541 9.35022C3.94967 8.85465 4.62144 8.57588 5.32227 8.57581H6.92969C7.20583 8.57581 7.42969 8.79966 7.42969 9.07581V10.1471C7.42969 10.4232 7.20583 10.6471 6.92969 10.6471C6.65354 10.6471 6.42969 10.4232 6.42969 10.1471Z" fill="#0F7C82"/>
<path d="M13.9297 13.351V7.99353C13.9297 7.84203 13.8698 7.69636 13.7627 7.58923C13.6556 7.4821 13.5099 7.42228 13.3584 7.42224H8.00098C7.84947 7.42228 7.70381 7.4821 7.59668 7.58923C7.48955 7.69636 7.42972 7.84203 7.42969 7.99353V10.1361C7.42969 10.4123 7.20583 10.6361 6.92969 10.6361C6.65355 10.6361 6.42969 10.4123 6.42969 10.1361V7.99353C6.42972 7.57681 6.59498 7.17687 6.88965 6.8822C7.18432 6.58754 7.58426 6.42228 8.00098 6.42224H13.3584C13.7751 6.42228 14.1751 6.58754 14.4697 6.8822C14.7644 7.17687 14.9297 7.57681 14.9297 7.99353V13.351C14.9296 13.627 14.7058 13.851 14.4297 13.851C14.1536 13.851 13.9298 13.627 13.9297 13.351Z" fill="#0F7C82"/>
</svg>
